<?xml version="1.0" encoding="UTF-8" standalone="no"?>
<!DOCTYPE svg PUBLIC "-//W3C//DTD SVG 1.1//EN" "http://www.w3.org/Graphics/SVG/1.1/DTD/svg11.dtd">
<svg width="100%" height="100%" viewBox="0 0 100 100" version="1.1" xmlns="http://www.w3.org/2000/svg" xmlns:xlink="http://www.w3.org/1999/xlink" xml:space="preserve" xmlns:serif="http://www.serif.com/" style="fill-rule:evenodd;clip-rule:evenodd;stroke-linecap:round;stroke-linejoin:round;stroke-miterlimit:1.5;">
    <g transform="matrix(1,0,0,1,32,35)">
        <circle cx="15" cy="15" r="5" style="fill:white;"/>
    </g>
    <g transform="matrix(1,0,0,1,42,8)">
        <circle cx="15" cy="15" r="5" style="fill:white;"/>
    </g>
    <g transform="matrix(1,0,0,1,75,-2)">
        <circle cx="15" cy="15" r="5" style="fill:white;"/>
    </g>
    <g transform="matrix(1,0,0,1,32,35)">
        <circle cx="15" cy="15" r="5" style="fill:white;"/>
    </g>
    <g transform="matrix(1,0,0,1,37,56)">
        <circle cx="15" cy="15" r="5" style="fill:white;"/>
    </g>
    <g transform="matrix(1,0,0,1,17,72)">
        <circle cx="15" cy="15" r="5" style="fill:white;"/>
    </g>
    <g transform="matrix(1,0,0,1,-5,58)">
        <circle cx="15" cy="15" r="5" style="fill:white;"/>
    </g>
    <path d="M90,13L57,23.134L47,50L52,71L32,87L10,73L47,50" style="fill:none;stroke:white;stroke-width:4px;"/>
</svg>
